<svg xmlns="http://www.w3.org/2000/svg" width="500" height="500" viewBox="0 0 375 375"><clipPath id="a"><path transform="scale(.24)" d="M0 0h1562.5v1562.5H0z" fill-rule="evenodd" data-index="0"></path></clipPath><g clip-path="url(#a)"></g><clipPath id="b"><path transform="scale(.24)" d="M0 0h1562.5v1562.5H0z" fill-rule="evenodd" data-index="2"></path></clipPath><g clip-path="url(#b)"></g><clipPath id="c"><path transform="scale(.24)" d="M213.4 539.655h1134.374v484.375H213.399z" fill-rule="evenodd" data-index="4"></path></clipPath><g clip-path="url(#c)" fill-rule="evenodd"><path d="m93.747 129.529-31.66 89.321-10.871-2.834 42.53-86.487zM68.513 226.1h-5.435l23.159-54.587L68.513 226.1zM88.357 178.134 76.782 234.37h-4.731l16.306-56.236zM93.867 187.468h5.769v11.52h-5.769zM103.488 187.468h5.77v11.52h-5.77zM93.867 173.06h5.769v11.528h-5.769zM103.488 173.06h5.77v11.528h-5.77z" fill="#d9d9d9" data-index="5" style="opacity: 1;"></path><path d="M298.956 216.535H151.501l-54.587-86.803h176.753l7.955 13.77H221.45l14.64 10.584-3.454 8.788h60.17l30.975 53.661h-15.844l9.714 16.825h-21.585l6.991 12.103H132.481l-6.963-34.67 12.167 28.503H290.52l-3.435-5.936H140.796l-21.742-49.642 26.947 43.475h159.113l-6.158-10.658z" fill="#1fa2c5" data-index="6" style="opacity: 1;"></path></g></svg>